{
  "accessors": [
    {
      "bufferView": 2,
      "componentType": 5126,
      "count": 400,
      "max": [
        0.2869099974632263,
        0.34922531247138977,
        0.47119829058647156
      ],
      "min": [
        -0.2857010066509247,
        0.16020220518112183,
        2.699669892081147e-07
      ],
      "type": "VEC3"
    },
    {
      "bufferView": 2,
      "byteOffset": 4800,
      "componentType": 5126,
      "count": 400,
      "max": [
        1.0,
        1.0,
        1.0
      ],
      "min": [
        -1.0,
        -1.0,
        -1.0
      ],
      "type": "VEC3"
    },
    {
      "bufferView": 3,
      "componentType": 5126,
      "count": 400,
      "max": [
        1.0,
        1.0,
        1.0,
        1.0
      ],
      "min": [
        -1.0,
        -1.0,
        -1.0,
        1.0
      ],
      "type": "VEC4"
    },
    {
      "bufferView": 1,
      "componentType": 5126,
      "count": 400,
      "max": [
        0.9852150082588196,
        1.0
      ],
      "min": [
        0.0003699999942909926,
        0.0008699999889358878
      ],
      "type": "VEC2"
    },
    {
      "bufferView": 0,
      "componentType": 5125,
      "count": 1014,
      "type": "SCALAR"
    },
    {
      "bufferView": 2,
      "byteOffset": 9600,
      "componentType": 5126,
      "count": 80,
      "max": [
        0.2301633059978485,
        0.06323599070310593,
        0.007828772068023682
      ],
      "min": [
        -0.2247346043586731,
        -0.06157999858260155,
        -3.220550070182071e-06
      ],
      "type": "VEC3"
    },
    {
      "bufferView": 2,
      "byteOffset": 10560,
      "componentType": 5126,
      "count": 80,
      "max": [
        0.9969155192375183,
        0.9969154000282288,
        1.0
      ],
      "min": [
        -0.9969276189804077,
        -0.9969154000282288,
        0.0
      ],
      "type": "VEC3"
    },
    {
      "bufferView": 3,
      "byteOffset": 6400,
      "componentType": 5126,
      "count": 80,
      "max": [
        0.8090152740478516,
        0.9969155192375183,
        1.713144115456089e-06,
        1.0
      ],
      "min": [
        -0.8090157508850098,
        -0.9969276785850525,
        -0.6947923302650452,
        1.0
      ],
      "type": "VEC4"
    },
    {
      "bufferView": 1,
      "byteOffset": 3200,
      "componentType": 5126,
      "count": 80,
      "max": [
        0.9443299770355225,
        0.9443339705467224
      ],
      "min": [
        0.0,
        0.0
      ],
      "type": "VEC2"
    },
    {
      "bufferView": 0,
      "byteOffset": 4056,
      "componentType": 5125,
      "count": 210,
      "type": "SCALAR"
    },
    {
      "bufferView": 2,
      "byteOffset": 11520,
      "componentType": 5126,
      "count": 1033,
      "max": [
        0.49487391114234924,
        0.07338500022888184,
        0.019808469340205193
      ],
      "min": [
        0.29376980662345886,
        -0.07043498009443283,
        -4.868639962296584e-07
      ],
      "type": "VEC3"
    },
    {
      "bufferView": 2,
      "byteOffset": 23916,
      "componentType": 5126,
      "count": 1033,
      "max": [
        0.9992777109146118,
        0.9999430775642395,
        1.0
      ],
      "min": [
        -0.9992771148681641,
        -0.9999426603317261,
        -0.9997512102127075
      ],
      "type": "VEC3"
    },
    {
      "bufferView": 3,
      "byteOffset": 7680,
      "componentType": 5126,
      "count": 1033,
      "max": [
        1.0,
        1.0,
        0.9999998211860657,
        1.0
      ],
      "min": [
        -0.9969024658203125,
        -1.0,
        -0.9999991655349731,
        1.0
      ],
      "type": "VEC4"
    },
    {
      "bufferView": 1,
      "byteOffset": 3840,
      "componentType": 5126,
      "count": 1033,
      "max": [
        1.0,
        0.8089330196380615
      ],
      "min": [
        5.0999999075429514e-05,
        0.0009169999975711107
      ],
      "type": "VEC2"
    },
    {
      "bufferView": 0,
      "byteOffset": 4896,
      "componentType": 5125,
      "count": 3582,
      "type": "SCALAR"
    },
    {
      "bufferView": 2,
      "byteOffset": 36312,
      "componentType": 5126,
      "count": 1070,
      "max": [
        -0.37069201469421387,
        0.2897469997406006,
        0.4219028055667877
      ],
      "min": [
        -0.5452821254730225,
        -0.0666009709239006,
        -1.716619954095222e-05
      ],
      "type": "VEC3"
    },
    {
      "bufferView": 2,
      "byteOffset": 49152,
      "componentType": 5126,
      "count": 1070,
      "max": [
        1.0,
        1.0,
        1.0
      ],
      "min": [
        -1.0,
        -1.0,
        -1.0
      ],
      "type": "VEC3"
    },
    {
      "bufferView": 3,
      "byteOffset": 24208,
      "componentType": 5126,
      "count": 1070,
      "max": [
        1.0,
        1.0,
        1.0,
        1.0
      ],
      "min": [
        -1.0,
        -1.0,
        -1.0,
        1.0
      ],
      "type": "VEC4"
    },
    {
      "bufferView": 1,
      "byteOffset": 12104,
      "componentType": 5126,
      "count": 1070,
      "max": [
        0.998511016368866,
        0.9912170171737671
      ],
      "min": [
        0.0014859429793432355,
        0.0014819500502198935
      ],
      "type": "VEC2"
    },
    {
      "bufferView": 0,
      "byteOffset": 19224,
      "componentType": 5125,
      "count": 3540,
      "type": "SCALAR"
    }
  ],
  "asset": {
    "extras": {
      "author": "Andrey 3D (https://sketchfab.com/Andrey3Ds)",
      "license": "CC-BY-4.0 (http://creativecommons.org/licenses/by/4.0/)",
      "source": "https://sketchfab.com/3d-models/apple-macpro-low-poly-fee210eb736347889a79b37d16703897",
      "title": "Apple MacPro (low poly)"
    },
    "generator": "Sketchfab-15.55.0",
    "version": "2.0"
  },
  "bufferViews": [
    {
      "buffer": 0,
      "byteLength": 33384,
      "name": "floatBufferViews",
      "target": 34963
    },
    {
      "buffer": 0,
      "byteLength": 20664,
      "byteOffset": 33384,
      "byteStride": 8,
      "name": "floatBufferViews",
      "target": 34962
    },
    {
      "buffer": 0,
      "byteLength": 61992,
      "byteOffset": 54048,
      "byteStride": 12,
      "name": "floatBufferViews",
      "target": 34962
    },
    {
      "buffer": 0,
      "byteLength": 41328,
      "byteOffset": 116040,
      "byteStride": 16,
      "name": "floatBufferViews",
      "target": 34962
    }
  ],
  "buffers": [
    {
      "byteLength": 157368,
      "uri": "scene.bin"
    }
  ],
  "images": [
    {
      "uri": "textures/macpro_baseColor.jpeg"
    },
    {
      "uri": "textures/macpro_metallicRoughness.png"
    },
    {
      "uri": "textures/macpro_normal.png"
    },
    {
      "uri": "textures/macpro_keybord_and_mouse_baseColor.jpeg"
    },
    {
      "uri": "textures/macpro_keybord_and_mouse_metallicRoughness.png"
    },
    {
      "uri": "textures/macpro_keybord_and_mouse_normal.png"
    },
    {
      "uri": "textures/macpro_monitor.001_baseColor.jpeg"
    },
    {
      "uri": "textures/macpro_monitor.001_metallicRoughness.png"
    },
    {
      "uri": "textures/macpro_monitor.001_normal.png"
    }
  ],
  "materials": [
    {
      "doubleSided": true,
      "name": "macpro",
      "normalTexture": {
        "index": 2
      },
      "occlusionTexture": {
        "index": 1
      },
      "pbrMetallicRoughness": {
        "baseColorTexture": {
          "index": 0
        },
        "metallicRoughnessTexture": {
          "index": 1
        }
      }
    },
    {
      "doubleSided": true,
      "name": "macpro_keybord_and_mouse",
      "normalTexture": {
        "index": 5
      },
      "occlusionTexture": {
        "index": 4
      },
      "pbrMetallicRoughness": {
        "baseColorTexture": {
          "index": 3
        },
        "metallicRoughnessTexture": {
          "index": 4
        }
      }
    },
    {
      "doubleSided": true,
      "name": "macpro_monitor.001",
      "normalTexture": {
        "index": 8
      },
      "occlusionTexture": {
        "index": 7
      },
      "pbrMetallicRoughness": {
        "baseColorTexture": {
          "index": 6
        },
        "metallicRoughnessTexture": {
          "index": 7
        }
      }
    }
  ],
  "meshes": [
    {
      "name": "macpro_monitor_001-material",
      "primitives": [
        {
          "attributes": {
            "NORMAL": 1,
            "POSITION": 0,
            "TANGENT": 2,
            "TEXCOORD_0": 3
          },
          "indices": 4,
          "material": 2,
          "mode": 4
        }
      ]
    },
    {
      "name": "macpro_keybord_and_mouse-material",
      "primitives": [
        {
          "attributes": {
            "NORMAL": 6,
            "POSITION": 5,
            "TANGENT": 7,
            "TEXCOORD_0": 8
          },
          "indices": 9,
          "material": 1,
          "mode": 4
        }
      ]
    },
    {
      "name": "macpro_keybord_and_mouse-material",
      "primitives": [
        {
          "attributes": {
            "NORMAL": 11,
            "POSITION": 10,
            "TANGENT": 12,
            "TEXCOORD_0": 13
          },
          "indices": 14,
          "material": 1,
          "mode": 4
        }
      ]
    },
    {
      "name": "macpro-material",
      "primitives": [
        {
          "attributes": {
            "NORMAL": 16,
            "POSITION": 15,
            "TANGENT": 17,
            "TEXCOORD_0": 18
          },
          "indices": 19,
          "material": 0,
          "mode": 4
        }
      ]
    }
  ],
  "nodes": [
    {
      "children": [
        1
      ],
      "matrix": [
        1.0,
        1.6081226229577294e-16,
        -1.608122622957729e-16,
        0.0,
        -1.6081226229577292e-16,
        3.828568672208042e-16,
        -1.0,
        0.0,
        -1.6081226229577292e-16,
        1.0,
        3.828568672208042e-16,
        0.0,
        0.0,
        0.0,
        0.0,
        1.0
      ],
      "name": "Sketchfab_model"
    },
    {
      "children": [
        2,
        4,
        6,
        8
      ],
      "name": "Collada visual scene group"
    },
    {
      "children": [
        3
      ],
      "name": "macpro_monitor"
    },
    {
      "mesh": 0,
      "name": "macpro_monitor_001-material"
    },
    {
      "children": [
        5
      ],
      "name": "macpro_keybord"
    },
    {
      "mesh": 1,
      "name": "macpro_keybord_and_mouse-material"
    },
    {
      "children": [
        7
      ],
      "name": "macpro_mouse"
    },
    {
      "mesh": 2,
      "name": "macpro_keybord_and_mouse-material"
    },
    {
      "children": [
        9
      ],
      "name": "mac_pro"
    },
    {
      "mesh": 3,
      "name": "macpro-material"
    }
  ],
  "samplers": [
    {
      "magFilter": 9729,
      "minFilter": 9987,
      "wrapS": 10497,
      "wrapT": 10497
    }
  ],
  "scene": 0,
  "scenes": [
    {
      "name": "Sketchfab_Scene",
      "nodes": [
        0
      ]
    }
  ],
  "textures": [
    {
      "sampler": 0,
      "source": 0
    },
    {
      "sampler": 0,
      "source": 1
    },
    {
      "sampler": 0,
      "source": 2
    },
    {
      "sampler": 0,
      "source": 3
    },
    {
      "sampler": 0,
      "source": 4
    },
    {
      "sampler": 0,
      "source": 5
    },
    {
      "sampler": 0,
      "source": 6
    },
    {
      "sampler": 0,
      "source": 7
    },
    {
      "sampler": 0,
      "source": 8
    }
  ]
}
